<svg id="Capa_1" enable-background="new 0 0 512 512" height="512" viewBox="0 0 512 512" width="512" xmlns="http://www.w3.org/2000/svg"><g><path d="m165.506 145.008v-29.998h94.994c31.746 0 60.166 20.089 70.721 49.99 3.641 10.315 14.497 10.124 14.144 10.006 6.349 0 12.01-3.998 14.135-9.981 19.353-54.512-21.979-120.01-98.999-120.01h-94.993v-29.998c0-11.829-13.099-19.005-23.067-12.644l-104.994 66.995c-9.374 5.98-9.2 19.775.352 25.505l104.993 62.996c9.981 5.991 22.714-1.219 22.714-12.861z"/><path d="m474.202 417.126-104.993-62.996c-9.982-5.991-22.716 1.219-22.716 12.861v29.998h-94.993c-31.746 0-60.166-20.089-70.721-49.99-3.641-10.315-14.497-10.124-14.144-10.006-6.349 0-12.01 3.998-14.135 9.981-19.353 54.512 21.979 120.01 98.999 120.01h94.993v29.998c0 11.829 13.099 19.005 23.067 12.644l104.993-66.995c9.375-5.98 9.201-19.774-.35-25.505z"/><path d="m266.399 220.323s.05.051.152.14z"/><path d="m209.067 337.015c6.329 17.93 23.382 29.977 42.434 29.977h64.995c0-35.153 38.492-56.378 68.15-38.583l53.131 31.879c51.463-89.507 29.999-205.283-53.845-270.297 12.036 26.996 13.633 57.474 3.836 85.071-14.199 39.986-70.749 39.83-84.835-.076-6.329-17.93-23.382-29.977-42.434-29.977h-64.995c0 34.909-38.192 56.558-68.15 38.583l-53.886-32.332c-51.659 89.553-30.84 206.508 55.13 271.924-12.518-27.284-14.305-58.247-4.366-86.244 14.199-39.987 70.748-39.831 84.835.075zm5.224-44.161c4.534-6.932 13.83-8.876 20.763-4.341 7.31 4.781 9.676 5.148 19.676 5.087 9.649-.063 13.494-7.637 14.244-12.102.674-4.009-.083-9.339-7.517-11.967-12.451-4.401-25.22-9.451-34.27-16.549-20.813-16.325-14.222-53.7 13.314-63.108v-8.87c0-8.284 6.715-14.999 14.999-14.999s14.999 6.715 14.999 14.999v8.395c7.322 2.245 12.973 5.861 16.237 8.871l1.353 1.248c6.09 5.616 6.474 15.104.859 21.195-5.616 6.088-15.104 6.474-21.194.858l-1.165-1.074c-.952-.763-6.925-5.117-16.167-2.332-5.65 1.702-6.38 9.91-4.721 11.213 5.659 4.438 16.194 8.491 25.754 11.869 39.286 13.887 34.784 65.876-.954 79.448v10.298c0 8.284-6.715 14.999-14.999 14.999s-14.999-6.715-14.999-14.999v-8.255c-7.174-1.161-13.64-3.738-21.871-9.122-6.934-4.534-8.877-13.83-4.341-20.762z"/></g></svg>