<svg xmlns="http://www.w3.org/2000/svg" width="32" height="32" viewBox="0 0 32 32">
            <defs>
              <clipPath id="clip-path">
                <rect id="Rectangle_50" data-name="Rectangle 50" width="32" height="32" transform="translate(1258 111)" fill="#7f96b1" />
              </clipPath>
            </defs>
            <g id="liquidity_ico" transform="translate(-1258 -111)" clip-path="url(#clip-path)">
              <path id="icons8-money" d="M4.8,4.8A1.6,1.6,0,0,0,3.2,6.4v16A1.6,1.6,0,0,0,4.8,24H33.6a1.6,1.6,0,0,0,1.6-1.6V6.4a1.6,1.6,0,0,0-1.6-1.6ZM7.859,8H30.541A2.4,2.4,0,0,0,32,9.459v9.881A2.4,2.4,0,0,0,30.541,20.8H7.859A2.4,2.4,0,0,0,6.4,19.341V9.459A2.4,2.4,0,0,0,7.859,8ZM19.2,9.6A4.8,4.8,0,1,0,24,14.4a4.8,4.8,0,0,0-4.8-4.8Zm-8,3.2a1.6,1.6,0,1,0,1.6,1.6A1.6,1.6,0,0,0,11.2,12.8Zm16,0a1.6,1.6,0,1,0,1.6,1.6A1.6,1.6,0,0,0,27.2,12.8ZM6.384,27.2l24.381,6.35a1.6,1.6,0,0,0,1.95-1.147l1.356-5.2H30.766l-.378,1.441a2.393,2.393,0,0,0-1.772,1.041L19.084,27.2Z" transform="translate(1254.801 107.799)" fill="#7f96b1" />
            </g>
          </svg>