<svg xmlns="http://www.w3.org/2000/svg"   width="32" height="32" viewBox="0 0 32 32">
  <defs>
    <clipPath id="clip-path">
      <rect id="Rectangle_48" data-name="Rectangle 48" width="32" height="32" transform="translate(694 111)" fill="#7f96b1"/>
    </clipPath>
  </defs>
  <g id="_24hChange_ico" data-name="24hChange_ico" transform="translate(-694 -111)" clip-path="url(#clip-path)">
    <path id="icons8-last_24_hours" d="M19.2,3.2A15.905,15.905,0,0,0,7.153,8.753L3.2,4.8v9.6h9.6L9.4,11A12.777,12.777,0,0,1,32,19.2h3.2A16.018,16.018,0,0,0,19.2,3.2Zm-16,16a16.011,16.011,0,0,0,9.6,14.647V30.256A12.777,12.777,0,0,1,6.4,19.2ZM20,22.4a4.024,4.024,0,0,0-4,4v.8h3.2v-.8a.8.8,0,0,1,1.6,0,7.147,7.147,0,0,1-1.469,2.878A27.606,27.606,0,0,1,16.5,32.338l-.5.475V35.2h8V32H21.156c.254-.3.468-.455.712-.772A8.036,8.036,0,0,0,24,26.4,4.024,4.024,0,0,0,20,22.4Zm7.2,0V32H32v3.2h3.2V22.4H32v6.4H30.4V22.4Z" transform="translate(690.801 107.801)" fill="#7f96b1"/>
  </g>
</svg>
