<svg xmlns="http://www.w3.org/2000/svg" xmlns:xlink="http://www.w3.org/1999/xlink" width="32" height="32" viewBox="0 0 32 32">
  <defs>
    <clipPath id="clip-path">
      <rect id="Rectangle_47" data-name="Rectangle 47" width="32" height="32" transform="translate(412 107)" fill="#fff" stroke="#707070" stroke-width="1"/>
    </clipPath>
  </defs>
  <g id="Price_ico" transform="translate(-412 -107)" opacity="0.5" clip-path="url(#clip-path)">
    <path id="icons8-bonds" d="M7.2,6a3.2,3.2,0,0,0-.619.063l-.05.012a3.2,3.2,0,0,0-.559.175l-.025.009A3.2,3.2,0,0,0,4,9.2V31.6a3.2,3.2,0,0,0,.063.619c0,.017.009.033.012.05a3.2,3.2,0,0,0,.175.559c0,.008.006.017.009.025A3.2,3.2,0,0,0,7.2,34.8H32.8a3.2,3.2,0,0,0,.619-.062l.05-.013A3.2,3.2,0,0,0,36,31.6V9.2a3.2,3.2,0,0,0-.062-.619c0-.017-.009-.033-.013-.05A3.2,3.2,0,0,0,32.8,6Zm3.2,3.2H29.6a3.2,3.2,0,0,0,3.2,3.2v16a3.2,3.2,0,0,0-3.2,3.2H10.4a3.2,3.2,0,0,0-3.2-3.2v-16A3.2,3.2,0,0,0,10.4,9.2Zm9.144,1.6v1.647a4.055,4.055,0,0,0-3.581,4.3c0,5.346,5.534,3.763,5.534,7.331,0,1.786-1.152,1.828-1.387,1.828-.2,0-1.491.073-1.6-2.309H15.475c.152,4.323,3.353,4.686,3.841,4.753V30h1.6V28.353a4,4,0,0,0,3.6-4.294c0-5.13-5.534-4.15-5.534-7.3,0-1.8.995-1.859,1.209-1.859.376,0,1.237.337,1.309,2.3h3.016c-.12-3.963-2.862-4.613-3.362-4.709V10.8Zm-9.144,8V22h3.2V18.8Zm16,0V22h3.2V18.8Z" transform="translate(408 102.6)" fill="#b5b5b5"/>
  </g>
</svg>
