<?xml version="1.0" encoding="UTF-8"?>
<svg width="18px" height="19px" viewBox="0 0 18 19" version="1.1" xmlns="http://www.w3.org/2000/svg" xmlns:xlink="http://www.w3.org/1999/xlink">
    <title>func/search</title>
    <g id="explore" stroke="none" stroke-width="1" fill="none" fill-rule="evenodd">
        <g id="list" transform="translate(-1021.000000, -565.000000)" fill="#8B93A7">
            <g id="search" transform="translate(1000.000000, 554.000000)">
                <g id="func/search" transform="translate(20.000000, 10.000000)">
                    <path d="M13.2890191,15.4331455 C12.1061303,16.2128732 10.6893931,16.6666667 9.16666667,16.6666667 C5.02453104,16.6666667 1.66666667,13.3088023 1.66666667,9.16666667 C1.66666667,5.02453104 5.02453104,1.66666667 9.16666667,1.66666667 C13.3088023,1.66666667 16.6666667,5.02453104 16.6666667,9.16666667 C16.6666667,10.8830432 16.0901131,12.4647584 15.1201129,13.7287055 L18.7351457,17.3437382 L16.9673787,19.1115052 L13.2890191,15.4331455 Z M9.16666667,14.1666667 C11.9280904,14.1666667 14.1666667,11.9280904 14.1666667,9.16666667 C14.1666667,6.40524292 11.9280904,4.16666667 9.16666667,4.16666667 C6.40524292,4.16666667 4.16666667,6.40524292 4.16666667,9.16666667 C4.16666667,11.9280904 6.40524292,14.1666667 9.16666667,14.1666667 Z" id="Shape"></path>
                </g>
            </g>
        </g>
    </g>
</svg>