<svg xmlns="http://www.w3.org/2000/svg" width="24.006" height="24" viewBox="0 0 24.006 24">
    <path d="M318.3 309.634a2.927 2.927 0 0 1-2.123-4.06 4.9 4.9 0 0 1-3.034-1.1 3.983 3.983 0 0 0 .446-2.5 7.062 7.062 0 0 0 4.445-10.031 6.181 6.181 0 0 0-2.781-1.315 6.217 6.217 0 0 0-.5-.074 2.929 2.929 0 1 1-2.087 5.465 4.9 4.9 0 0 1-1.1 3.034 3.989 3.989 0 0 0-2.5-.445 7.061 7.061 0 0 0-10.031-4.445 6.17 6.17 0 0 0-1.315 2.781 6.217 6.217 0 0 0-.074.5 2.929 2.929 0 1 1 5.467 2.086 4.9 4.9 0 0 1 3.034 1.1 3.983 3.983 0 0 0-.446 2.5 7.062 7.062 0 0 0-4.445 10.031 6.172 6.172 0 0 0 2.781 1.315c.167.032.334.056.5.075a2.929 2.929 0 1 1 2.086-5.467 4.9 4.9 0 0 1 1.1-3.034 3.99 3.99 0 0 0 2.506.449 7.061 7.061 0 0 0 10.031 4.445 6.17 6.17 0 0 0 1.315-2.781c.032-.167.056-.334.075-.5a2.93 2.93 0 0 1-3.35 1.971zm-4.293-11.579a.917.917 0 1 1-.219.669.917.917 0 0 1 .218-.669zm-8.729 8.993a.917.917 0 1 1 .219-.668.917.917 0 0 1-.221.668zm1.165-8.962a.917.917 0 1 1 .221-.667.917.917 0 0 1-.221.667zm3.2 6.065a1.6 1.6 0 1 1 1.6-1.6 1.6 1.6 0 0 1-1.6 1.6zm4.6 4.06a.917.917 0 1 1 .22-.668.917.917 0 0 1-.22.668z" transform="translate(-297.64 -290.55)" style="fill:#ffb000"/>
</svg>
