<svg width="24" height="24" viewBox="0 0 24 24" fill="none" xmlns="http://www.w3.org/2000/svg">
<path d="M15.9803 10.0203C16.8339 9.45308 17.8223 9.12143 18.8453 9.05897C19.8684 8.9965 20.8898 9.20543 21.8061 9.6646C21.3951 9.00599 21.1218 8.27098 21.0026 7.50389C20.8135 6.31254 21.0005 5.09185 21.5377 4.01176C22.075 2.93166 22.9357 2.0459 24 1.47777C22.6773 0.780224 21.2109 0.398613 19.7159 0.36288C18.2209 0.327147 16.7379 0.638265 15.3834 1.27182C14.0288 1.90537 12.8396 2.84413 11.9089 4.01442C10.9782 5.18471 10.3315 6.5547 10.0194 8.01689C9.45127 7.16397 9.11911 6.17591 9.05661 5.15309C8.99412 4.13027 9.20353 3.10914 9.66356 2.19343C8.98874 2.61327 8.2349 2.89014 7.44871 3.00689C6.66252 3.12364 5.86073 3.07778 5.09299 2.87216C4.32525 2.66653 3.60791 2.30552 2.98538 1.81148C2.36285 1.31744 1.84839 0.700885 1.47387 0C0.776631 1.32285 0.395456 2.78923 0.360246 4.2841C0.325037 5.77896 0.636752 7.26165 1.27094 8.61585C1.90512 9.97004 2.84452 11.1589 4.01545 12.0892C5.18637 13.0194 6.55697 13.6658 8.01971 13.9776C7.1663 14.5448 6.1781 14.8765 5.15521 14.9389C4.13232 15.0014 3.11108 14.7925 2.19497 14.3333C2.61469 15.008 2.89141 15.7616 3.00802 16.5476C3.12462 17.3335 3.07862 18.135 2.87286 18.9025C2.66709 19.6699 2.30596 20.387 1.8118 21.0093C1.31764 21.6315 0.70098 22.1458 0 22.5201C1.32255 23.2164 2.78839 23.597 4.28267 23.6322C5.77695 23.6674 7.25909 23.3562 8.61298 22.7231C9.96687 22.0899 11.1557 21.1519 12.0864 19.9825C13.0171 18.8132 13.6644 17.4443 13.9775 15.9831C14.5454 16.8361 14.8774 17.8242 14.9397 18.8471C15.002 19.8699 14.7924 20.891 14.3322 21.8066C15.007 21.3867 15.7609 21.1099 16.5471 20.9931C17.3333 20.8764 18.135 20.9222 18.9028 21.1278C19.6705 21.3335 20.3879 21.6945 21.0104 22.1885C21.6329 22.6826 22.1474 23.2991 22.5219 24C23.2191 22.6771 23.6003 21.2108 23.6355 19.7159C23.6707 18.221 23.359 16.7384 22.7248 15.3842C22.0907 14.03 21.1513 12.8411 19.9803 11.9108C18.8094 10.9806 17.4388 10.3342 15.9761 10.0224L15.9803 10.0203ZM13.9374 11.9984C13.9375 12.2531 13.8875 12.5052 13.7901 12.7405C13.6928 12.9758 13.55 13.1897 13.37 13.3698C13.19 13.55 12.9763 13.6929 12.7411 13.7905C12.5058 13.8881 12.2536 13.9384 11.9989 13.9385C11.7442 13.9385 11.4919 13.8883 11.2565 13.7908C11.0211 13.6933 10.8073 13.5504 10.6272 13.3702C10.447 13.19 10.3042 12.9762 10.2068 12.7408C10.1094 12.5054 10.0593 12.2531 10.0595 11.9984C10.0595 11.4842 10.2638 10.9909 10.6275 10.6273C10.9913 10.2637 11.4846 10.0594 11.9989 10.0594C12.5133 10.0594 13.0066 10.2637 13.3704 10.6273C13.7341 10.9909 13.9384 11.4842 13.9384 11.9984H13.9374Z" fill="#AAFF01"/>
</svg>
