<svg xmlns="http://www.w3.org/2000/svg" width="23.998" height="24" viewBox="0 0 23.998 24">
    <path d="M308.55 308.645h.122a7.075 7.075 0 0 1-4.2 5.875 11.782 11.782 0 0 0 10.5-11.711v-.122a7.072 7.072 0 0 1 5.871 4.206 11.782 11.782 0 0 0-11.705-10.5h-.122a7.072 7.072 0 0 1 4.2-5.877 11.782 11.782 0 0 0-10.5 11.711v.122a7.072 7.072 0 0 1-5.877-4.2 11.782 11.782 0 0 0 11.711 10.5zm-1.309-6.124a1.6 1.6 0 1 1 .47 1.133 1.6 1.6 0 0 1-.47-1.133z" transform="translate(-296.84 -290.52)" style="fill:#0ff"/>
</svg>
