<svg xmlns="http://www.w3.org/2000/svg" width="24.003" height="24" viewBox="0 0 24.003 24">
    <path d="M318.314 300.626a3.386 3.386 0 0 1-3.065-1.946 2.479 2.479 0 0 0-2.237-1.439 2.469 2.469 0 0 1-2.4-1.913 6.463 6.463 0 0 0-5.578-4.778 3.386 3.386 0 0 1 .715 6.371 2.477 2.477 0 0 0-1.439 2.237 2.469 2.469 0 0 1-1.913 2.4 6.46 6.46 0 0 0-4.778 5.577 3.386 3.386 0 0 1 6.371-.714 2.477 2.477 0 0 0 2.236 1.439 2.469 2.469 0 0 1 2.4 1.913 6.461 6.461 0 0 0 5.574 4.778 3.386 3.386 0 0 1-.714-6.371 2.478 2.478 0 0 0 1.446-2.239 2.469 2.469 0 0 1 1.913-2.4 6.463 6.463 0 0 0 4.778-5.577 3.387 3.387 0 0 1-3.309 2.662zm-8.693 3.523a1.6 1.6 0 1 1 1.6-1.6 1.6 1.6 0 0 1-1.6 1.6z" transform="translate(-297.62 -290.55)" style="fill:#a93eff"/>
</svg>
