<svg width="24" height="24" viewBox="0 0 24 24" fill="none" xmlns="http://www.w3.org/2000/svg">
<path d="M18.8114 13.8817C17.9957 13.8005 17.2043 13.558 16.4831 13.1684L18.9722 12L16.4831 10.8316C17.2043 10.442 17.9957 10.1995 18.8114 10.1183L24 0L13.881 5.18862C13.8002 6.00439 13.5577 6.7959 13.1677 7.51694L12 5.02846L10.8316 7.51694C10.4419 6.79577 10.1994 6.00433 10.1183 5.18862L0 0L5.18862 10.1211C6.00432 10.2022 6.79577 10.4447 7.51693 10.8344L5.02775 12L7.51693 13.1684C6.79577 13.5581 6.00432 13.8006 5.18862 13.8817L0 24L10.1183 18.8114C10.1994 17.9957 10.4419 17.2042 10.8316 16.4831L12 18.9715L13.1677 16.4831C13.5577 17.2041 13.8002 17.9956 13.881 18.8114L24 24L18.8114 13.8817ZM12 13.5995C11.6835 13.5996 11.374 13.5059 11.1108 13.3301C10.8475 13.1544 10.6423 12.9045 10.5211 12.6122C10.3999 12.3198 10.3681 11.998 10.4298 11.6875C10.4914 11.3771 10.6438 11.0919 10.8675 10.868C11.0913 10.6442 11.3764 10.4917 11.6869 10.4299C11.9973 10.3681 12.3191 10.3998 12.6115 10.5208C12.9039 10.6419 13.1539 10.847 13.3298 11.1102C13.5056 11.3734 13.5995 11.6828 13.5995 11.9993C13.5996 12.2094 13.5583 12.4175 13.4779 12.6117C13.3976 12.8059 13.2798 12.9824 13.1313 13.131C12.9828 13.2797 12.8064 13.3976 12.6123 13.4781C12.4182 13.5586 12.2101 13.6001 12 13.6002V13.5995Z" fill="#FFFF00"/>
</svg>
