<svg xmlns="http://www.w3.org/2000/svg" width="23.996" height="24" viewBox="0 0 23.996 24">
    <path d="M321.573 298.016s-.088.125-.26.327a4.219 4.219 0 0 1-3.251 1.52 4.428 4.428 0 0 1-4.27-3.253 8.206 8.206 0 0 0-1.912-3.411 8.547 8.547 0 0 0-5.963-2.655 4.468 4.468 0 0 0-.806.061s.125.089.327.26a4.367 4.367 0 0 1-1.732 7.521 8.2 8.2 0 0 0-3.412 1.912c-3.287 3.368-2.595 6.772-2.595 6.772s.088-.125.26-.327a4.22 4.22 0 0 1 3.252-1.52 4.427 4.427 0 0 1 4.269 3.252 8.214 8.214 0 0 0 1.912 3.412 8.547 8.547 0 0 0 5.963 2.655 4.474 4.474 0 0 0 .807-.061s-.126-.089-.327-.26a4.369 4.369 0 0 1 1.732-7.523 8.2 8.2 0 0 0 3.413-1.912c3.285-3.369 2.593-6.77 2.593-6.77zm-11.937 6.125a1.6 1.6 0 1 1 1.6-1.6 1.6 1.6 0 0 1-1.6 1.6z" transform="translate(-297.639 -290.542)" style="fill:#f50"/>
</svg>
