<svg xmlns="http://www.w3.org/2000/svg" width="24" height="24" viewBox="0 0 24 24">
    <path d="M217.519 274.541a1.471 1.471 0 1 1-2.06-2.06A37.043 37.043 0 0 0 212 266a36.972 36.972 0 0 0-3.459 6.484 1.471 1.471 0 0 1 .164 2.222 1.47 1.47 0 0 1-2.221-.164A36.973 36.973 0 0 0 200 278a36.974 36.974 0 0 0 6.484 3.459 1.47 1.47 0 1 1 2.06 2.06A37.01 37.01 0 0 0 212 290a37.043 37.043 0 0 0 3.459-6.484 1.47 1.47 0 1 1 2.06-2.06A37.01 37.01 0 0 0 224 278a36.976 36.976 0 0 0-6.481-3.459zM210.4 278a1.607 1.607 0 1 1 1.6 1.607 1.607 1.607 0 0 1-1.6-1.607z" transform="translate(-200 -266)" style="fill:#9e9e9e"/>
</svg>
