<svg xmlns="http://www.w3.org/2000/svg" width="24" height="24" viewBox="0 0 24 24">
    <path d="M316.451 304.432a6.189 6.189 0 0 1-2.328-.713l2.489-1.168-2.489-1.168a6.188 6.188 0 0 1 2.328-.713l5.189-10.118-10.119 5.189a6.172 6.172 0 0 1-.713 2.328l-1.168-2.488-1.168 2.488a6.185 6.185 0 0 1-.713-2.328l-10.119-5.191 5.189 10.121a6.184 6.184 0 0 1 2.328.713l-2.489 1.166 2.489 1.168a6.185 6.185 0 0 1-2.328.713l-5.189 10.119 10.118-5.189a6.185 6.185 0 0 1 .713-2.328l1.168 2.488 1.168-2.488a6.172 6.172 0 0 1 .713 2.328l10.119 5.189zm-6.811-.282a1.6 1.6 0 1 1 1.6-1.6 1.6 1.6 0 0 1-1.6 1.6z" transform="translate(-297.64 -290.55)" style="fill:#fffe01"/>
</svg>
