<svg xmlns="http://www.w3.org/2000/svg" width="23.998" height="24" viewBox="0 0 23.998 24">
    <path d="M314.34 304.329a.574.574 0 0 1-.406.434.656.656 0 0 1-.885-.436.664.664 0 0 1 .091-.5 1.7 1.7 0 0 1-1.213-.046 2.61 2.61 0 0 0-.385-2.99 1.868 1.868 0 0 1 1.068-.33c2.426-1.564 3.681-3.824 3.2-5.705a4.1 4.1 0 0 1 .9 2.168 4.547 4.547 0 0 0-.635-4.272 4.96 4.96 0 0 0-3.18-2.091c1.816 4.133-1.708 7.318-1.708 7.318a.581.581 0 0 1 .47.366.641.641 0 0 1-.374.9.693.693 0 0 1-.515-.052 1.637 1.637 0 0 1 .062 1.149 2.61 2.61 0 0 0-2.923.353 1.834 1.834 0 0 1-.251-1.016c-1.476-2.459-3.711-3.8-5.644-3.409a4.226 4.226 0 0 1 2.241-.789 4.724 4.724 0 0 0-4.363.431 4.856 4.856 0 0 0-2.267 3.034c4.277-1.6 7.346 2.014 7.346 2.014a.572.572 0 0 1 .393-.445.655.655 0 0 1 .9.409.662.662 0 0 1-.076.5 1.723 1.723 0 0 1 1.146-.017 2.61 2.61 0 0 0 .423 3.069 1.923 1.923 0 0 1-1 .275c-2.433 1.552-3.7 3.809-3.225 5.692a4.1 4.1 0 0 1-.893-2.171 4.541 4.541 0 0 0 .619 4.275 4.953 4.953 0 0 0 3.17 2.1c-1.794-4.144 1.741-7.315 1.741-7.315a.578.578 0 0 1-.468-.368.64.64 0 0 1 .378-.9.687.687 0 0 1 .514.054 1.647 1.647 0 0 1-.071-1.106 2.61 2.61 0 0 0 2.855-.434 1.8 1.8 0 0 1 .24 1.044c1.4 2.5 3.6 3.9 5.536 3.572a4.265 4.265 0 0 1-2.263.723 4.733 4.733 0 0 0 4.374-.3 4.877 4.877 0 0 0 2.356-2.963c-4.318 1.475-7.278-2.225-7.278-2.225zm-6.319-1.774a1.6 1.6 0 1 1 1.6 1.6 1.6 1.6 0 0 1-1.6-1.599z" transform="translate(-297.624 -290.558)" style="fill:#615eff"/>
</svg>
