<svg xmlns="http://www.w3.org/2000/svg" width="24.004" height="24" viewBox="0 0 24.004 24">
    <path data-name="Path 255" d="M313.439 295.39s3.392 3.246.754 5.787a.055.055 0 0 0-.011.011.82.82 0 0 1-1.373-.539c-.083-.974-.2-2.2-.311-2.766-.346-1.821-.525-5.861 4.331-6.981 0 0-10.995-2.74-14.385 7.883 0 0 3.246-3.392 5.783-.754l.011.011a.82.82 0 0 1-.539 1.373c-.974.083-2.2.2-2.765.311-1.821.344-5.863.523-6.983-4.334 0 0-2.74 11 7.883 14.386 0 0-3.392-3.246-.754-5.787l.011-.011a.819.819 0 0 1 1.372.539c.083.974.2 2.2.311 2.766.346 1.821.525 5.861-4.331 6.982 0 0 10.994 2.74 14.385-7.883 0 0-3.246 3.392-5.787.754l-.011-.011a.82.82 0 0 1 .539-1.373c.974-.083 2.2-.2 2.766-.31 1.821-.346 5.861-.526 6.982 4.332.006 0 2.745-10.995-7.878-14.386zm-3.8 8.794a1.6 1.6 0 1 1 1.6-1.6 1.6 1.6 0 0 1-1.601 1.599z" transform="translate(-297.635 -290.582)" style="fill:#f0f"/>
</svg>
